<svg width="24" height="29" fill="none" xmlns="http://www.w3.org/2000/svg"><path d="M1.756 9.187c-.49 0-.904.17-1.245.512-.34.34-.511.75-.511 1.227v7.33c0 .489.17.903.511 1.244.341.34.756.511 1.245.511.488 0 .9-.17 1.236-.51.334-.342.502-.756.502-1.245v-7.33c0-.477-.17-.886-.51-1.227a1.678 1.678 0 00-1.228-.512zM15.87 2.608L17.08.375c.08-.148.05-.261-.085-.34-.148-.07-.262-.035-.341.101l-1.227 2.25A8.38 8.38 0 0012 1.67c-1.204 0-2.346.24-3.426.717L7.347.137C7.267 0 7.154-.035 7.006.033c-.136.08-.165.193-.085.341l1.21 2.233C6.904 3.234 5.927 4.105 5.2 5.224a6.609 6.609 0 00-1.09 3.674h15.766a6.61 6.61 0 00-1.09-3.674 7.506 7.506 0 00-2.915-2.616zM8.872 5.855a.639.639 0 01-.469.197.61.61 0 01-.46-.197.653.653 0 01-.187-.469c0-.181.062-.337.187-.468a.612.612 0 01.46-.196.64.64 0 01.47.196.64.64 0 01.195.468.642.642 0 01-.196.47zm7.185 0a.611.611 0 01-.46.197.638.638 0 01-.47-.197.638.638 0 01-.195-.469.64.64 0 01.196-.468.64.64 0 01.469-.196c.181 0 .335.065.46.196a.655.655 0 01.187.468.653.653 0 01-.187.47zM4.176 20.863c0 .524.182.967.545 1.33a1.81 1.81 0 001.33.545h1.261l.018 3.87c0 .489.17.904.51 1.245.342.34.751.51 1.228.51.488 0 .903-.17 1.244-.51.341-.341.512-.756.512-1.245v-3.87h2.352v3.87c0 .489.17.904.511 1.245.341.34.756.51 1.244.51.489 0 .904-.17 1.245-.51.34-.341.51-.756.51-1.245v-3.87h1.28c.51 0 .948-.181 1.312-.545a1.81 1.81 0 00.545-1.33V9.512H4.176v11.352zM22.244 9.187a1.69 1.69 0 00-1.227.503c-.34.336-.511.748-.511 1.236v7.33c0 .489.17.903.511 1.244.341.341.75.511 1.227.511.489 0 .904-.17 1.245-.51A1.7 1.7 0 0024 18.256v-7.33c0-.488-.17-.9-.511-1.236a1.71 1.71 0 00-1.245-.503z" fill="#fff"/></svg>