<svg width="24" height="29" fill="none" xmlns="http://www.w3.org/2000/svg"><path d="M17.267 0c-1.498.104-3.249 1.062-4.269 2.311-.93 1.133-1.696 2.815-1.398 4.45 1.637.05 3.328-.93 4.308-2.2.917-1.182 1.61-2.854 1.36-4.561z" fill="#fff"/><path d="M23.187 9.427c-1.438-1.804-3.46-2.85-5.369-2.85-2.52 0-3.585 1.206-5.336 1.206-1.806 0-3.177-1.203-5.356-1.203-2.141 0-4.42 1.308-5.866 3.546-2.032 3.15-1.684 9.074 1.61 14.119 1.178 1.805 2.752 3.835 4.81 3.853 1.831.017 2.348-1.175 4.83-1.188 2.48-.014 2.951 1.203 4.78 1.184 2.06-.016 3.719-2.265 4.897-4.07.845-1.295 1.159-1.946 1.814-3.407-4.764-1.814-5.528-8.59-.813-11.19z" fill="#fff"/></svg>