<svg width="38" height="39" fill="none" xmlns="http://www.w3.org/2000/svg"><path fill-rule="evenodd" clip-rule="evenodd" d="M19 9.616L12.097 15 11 13.384 17.903 8 19 9.616z" fill="#13152D"/><path fill-rule="evenodd" clip-rule="evenodd" d="M7 23.075A5.079 5.079 0 0012.082 18 5.079 5.079 0 007 12.925 5.079 5.079 0 001.918 18 5.079 5.079 0 007 23.075zM7 25a7 7 0 100-14 7 7 0 000 14zM22.5 9.056A3.559 3.559 0 0026.062 5.5 3.559 3.559 0 0022.5 1.944 3.559 3.559 0 0018.938 5.5 3.559 3.559 0 0022.5 9.056zm0 1.944a5.5 5.5 0 100-11 5.5 5.5 0 000 11zM27 37.185c5.082 0 9.191-4.118 9.191-9.185S32.082 18.815 27 18.815c-5.082 0-9.192 4.118-9.192 9.185s4.11 9.185 9.192 9.185zM27 39c6.075 0 11-4.925 11-11s-4.925-11-11-11-11 4.925-11 11 4.925 11 11 11z" fill="#13152D"/><path fill-rule="evenodd" clip-rule="evenodd" d="M17.072 25L12 21.945 12.928 20 18 23.055 17.072 25zM27 29.257c1.701 0 3.07-1.24 3.07-2.757 0-1.517-1.369-2.757-3.07-2.757-1.701 0-3.07 1.24-3.07 2.757 0 1.517 1.369 2.757 3.07 2.757zM27 31c2.761 0 5-2.015 5-4.5S29.761 22 27 22s-5 2.015-5 4.5 2.239 4.5 5 4.5z" fill="#13152D"/><path fill-rule="evenodd" clip-rule="evenodd" d="M26.54 30.956c-2.747.305-5.106 2.255-5.702 4.835L19 35.354c.801-3.468 3.894-5.919 7.334-6.301 3.517-.391 7.338 1.363 9.666 6.092L34.311 36c-2.005-4.072-5.104-5.341-7.772-5.044z" fill="#13152D"/></svg>