<svg width="84" height="84" fill="none" xmlns="http://www.w3.org/2000/svg"><path d="M28.111 38.117c0 6.924-5.634 12.548-12.597 12.548-6.964 0-12.598-5.624-12.598-12.548S8.55 25.568 15.514 25.568c6.963 0 12.597 5.625 12.597 12.549zM58.55 12.252c0 5.139-4.182 9.316-9.354 9.316-5.172 0-9.354-4.177-9.354-9.316 0-5.138 4.182-9.315 9.354-9.315 5.172 0 9.354 4.177 9.354 9.315zm23.251 47.327c0 12.28-9.99 22.247-22.33 22.247-12.338 0-22.328-9.967-22.328-22.247s9.99-22.248 22.329-22.248c12.338 0 22.33 9.967 22.33 22.248zM25.943 29.565l14.808-10.778M27.51 45.204l10.334 5.54" stroke="#13152D" stroke-width="4"/><path d="M67.834 55.53c0 4.592-3.737 8.326-8.36 8.326-4.625 0-8.362-3.734-8.362-8.326 0-4.592 3.737-8.326 8.361-8.326 4.624 0 8.36 3.734 8.36 8.326zM43.33 75.995c2.962-12.64 23.106-18.392 32.288 0" stroke="#13152D" stroke-width="4"/></svg>