<svg width="81" height="91" fill="none" xmlns="http://www.w3.org/2000/svg"><path d="M22 26.387c.005 22.114 23.288 31.842 37.46 24.092l13.572 4.457a1.524 1.524 0 001.53-.4c.392-.404.535-.991.372-1.532L70.688 38.92c1.283-2.638 3.204-5.937 3.204-12.533C73.892 9.235 59.5 0 47.954 0 36.736 0 22 7.038 22 26.387z" fill="url(#paint0_linear)"/><path d="M9.618 55.816c-.954-1.872-1.96-3.844-1.96-8.519 0-7.796 4.577-13.309 10.058-16.297 0 8.513 6.437 22.763 26.284 26.117-5.242 8.733-17.589 11.491-25.69 7.266L7.457 66.956a1.153 1.153 0 01-1.122-.284 1.105 1.105 0 01-.283-1.122l3.599-9.673-.032-.062z" fill="url(#paint1_linear)"/><path d="M5.89 88.044c0-.416-.144-.735-.433-.956-.288-.225-.808-.46-1.559-.706-.75-.25-1.345-.495-1.783-.735-1.193-.657-1.79-1.542-1.79-2.654 0-.579.159-1.093.476-1.544.323-.456.782-.812 1.379-1.067.602-.255 1.275-.382 2.021-.382.751 0 1.42.14 2.007.42.587.274 1.042.663 1.364 1.168.328.505.491 1.079.491 1.72H5.898c0-.49-.152-.87-.455-1.139-.303-.274-.73-.412-1.278-.412-.53 0-.94.115-1.234.346-.294.225-.44.525-.44.897 0 .348.17.64.512.875.346.235.854.456 1.523.662 1.232.377 2.13.845 2.693 1.404.563.559.844 1.255.844 2.088 0 .927-.344 1.655-1.032 2.184-.688.525-1.615.787-2.78.787-.808 0-1.544-.15-2.208-.448-.664-.305-1.172-.719-1.523-1.243-.347-.525-.52-1.132-.52-1.824h2.173c0 1.182.693 1.772 2.079 1.772.515 0 .917-.105 1.205-.316.289-.216.433-.514.433-.897zm6.938-1.485L11.7 87.794v3.059H9.536V80.147H11.7V85l.953-1.33 2.678-3.523h2.664l-3.732 4.757 3.84 5.949h-2.577l-2.7-4.294zm8.258 2.521h4.598v1.773H18.92V80.147h2.166v8.934zm11.924-.433h-3.796l-.722 2.206h-2.303l3.913-10.706h2.006l3.934 10.706H33.74l-.73-2.206zm-3.212-1.787h2.628l-1.321-4.007-1.307 4.007zm7.226 3.993V80.147h3.234c.924 0 1.75.213 2.476.64a4.364 4.364 0 011.711 1.809c.409.779.614 1.666.614 2.661v.493c0 .995-.203 1.88-.607 2.654a4.339 4.339 0 01-1.696 1.802c-.732.426-1.557.642-2.476.647h-3.256zm2.166-8.92v7.148h1.047c.846 0 1.494-.282 1.941-.846.448-.563.677-1.37.686-2.419v-.566c0-1.088-.221-1.912-.664-2.47-.443-.564-1.09-.846-1.942-.846H39.19zm6.54 7.876c0-.338.11-.613.332-.824.226-.21.508-.316.845-.316.341 0 .623.106.844.316.226.211.34.486.34.824 0 .333-.111.605-.333.816-.221.206-.505.309-.852.309-.341 0-.623-.103-.844-.309-.221-.21-.332-.483-.332-.816zm12.582-2.522c-.082 1.152-.5 2.059-1.256 2.72-.75.662-1.742.993-2.974.993-1.348 0-2.409-.46-3.184-1.382-.77-.927-1.155-2.196-1.155-3.81v-.654c0-1.029.178-1.936.535-2.72.356-.784.863-1.385 1.523-1.802.664-.421 1.434-.632 2.31-.632 1.212 0 2.19.33 2.93.993.742.661 1.17 1.59 1.285 2.786h-2.165c-.053-.69-.243-1.19-.57-1.5-.323-.313-.816-.47-1.48-.47-.722 0-1.264.264-1.624.794-.357.525-.54 1.34-.55 2.449v.808c0 1.157.172 2.003.513 2.537.347.534.89.801 1.632.801.669 0 1.167-.154 1.494-.463.332-.313.522-.796.57-1.448h2.166zm10.055-1.544c0 1.054-.182 1.978-.548 2.772-.366.794-.89 1.407-1.574 1.838-.678.431-1.458.647-2.339.647-.87 0-1.648-.213-2.331-.64-.684-.426-1.213-1.034-1.588-1.823-.376-.794-.566-1.706-.57-2.736v-.529c0-1.054.185-1.98.555-2.78.376-.803.902-1.419 1.581-1.845.683-.431 1.463-.647 2.339-.647.876 0 1.653.216 2.331.647.684.426 1.21 1.042 1.581 1.846.376.799.563 1.723.563 2.772v.478zm-2.194-.486c0-1.122-.197-1.975-.592-2.559-.395-.583-.958-.874-1.69-.874-.726 0-1.286.289-1.681.867-.395.574-.594 1.417-.6 2.53v.522c0 1.093.198 1.94.593 2.544.394.603.962.904 1.703.904.727 0 1.285-.289 1.675-.868.39-.583.587-1.43.592-2.544v-.522zm6.597-5.11l2.7 7.765 2.686-7.765H81v10.706h-2.173v-2.926l.217-5.052-2.837 7.978H74.72l-2.83-7.97.217 5.044v2.926H69.94V80.147h2.83z" fill="#fff"/><path d="M52.273 33.654c0-.926-.35-1.648-1.054-2.165-.69-.518-1.91-1.053-3.66-1.607-1.75-.553-3.181-1.089-4.292-1.606-3.616-1.672-5.424-3.97-5.424-6.894 0-1.456.447-2.738 1.342-3.845.907-1.119 2.184-1.985 3.832-2.598 1.648-.626 3.501-.939 5.558-.939 2.006 0 3.8.337 5.385 1.01 1.597.675 2.836 1.637 3.718 2.888.881 1.24 1.322 2.66 1.322 4.26h-6.707c0-1.071-.352-1.901-1.054-2.49-.69-.59-1.63-.885-2.817-.885-1.201 0-2.153.252-2.856.758-.69.493-1.035 1.125-1.035 1.895 0 .674.384 1.287 1.15 1.84.767.542 2.115 1.108 4.044 1.697 1.929.578 3.513 1.204 4.752 1.877C57.493 28.487 59 30.743 59 33.618c0 2.298-.92 4.103-2.76 5.415C54.4 40.344 51.877 41 48.67 41c-2.26 0-4.311-.379-6.15-1.137-1.828-.77-3.208-1.817-4.14-3.14-.92-1.336-1.38-2.87-1.38-4.603h6.746c0 1.408.383 2.449 1.15 3.123.779.661 2.037.992 3.775.992 1.111 0 1.986-.222 2.625-.667.652-.458.977-1.095.977-1.914z" fill="#99D02A"/><defs><linearGradient id="paint0_linear" x1="48.503" y1="0" x2="48.503" y2="55" gradientUnits="userSpaceOnUse"><stop stop-color="#fff"/><stop offset="1" stop-color="#E1E1E1"/></linearGradient><linearGradient id="paint1_linear" x1="25.002" y1="31" x2="25.002" y2="67" gradientUnits="userSpaceOnUse"><stop stop-color="#fff"/><stop offset="1" stop-color="#E1E1E1"/></linearGradient></defs></svg>