<svg width="37" height="44" fill="none" xmlns="http://www.w3.org/2000/svg"><path fill-rule="evenodd" clip-rule="evenodd" d="M18 2a6 6 0 00-6 6v13h-2V8a8 8 0 1116 0v13h-2V8a6 6 0 00-6-6z" fill="#13152D"/><path fill-rule="evenodd" clip-rule="evenodd" d="M7.748 13.883c-2.5 0-4.568 1.933-4.724 4.413l-1.12 17.82c-.204 3.252 2.393 6.001 5.67 6.001h21.853c3.276 0 5.873-2.749 5.668-6l-1.12-17.82c-.155-2.481-2.224-4.414-4.723-4.414H7.748zm-6.613 4.296C1.353 14.706 4.249 12 7.748 12h21.504c3.499 0 6.395 2.706 6.613 6.179l1.12 17.82c.272 4.336-3.19 8.001-7.558 8.001H7.573c-4.368 0-7.83-3.665-7.558-8.001l1.12-17.82z" fill="#13152D"/><path fill-rule="evenodd" clip-rule="evenodd" d="M25 23.333c.552 0 1-.373 1-.833 0-.46-.448-.833-1-.833s-1 .373-1 .833c0 .46.448.833 1 .833zM25 25c1.657 0 3-1.12 3-2.5S26.657 20 25 20s-3 1.12-3 2.5 1.343 2.5 3 2.5zm-14-1.667c.552 0 1-.373 1-.833 0-.46-.448-.833-1-.833s-1 .373-1 .833c0 .46.448.833 1 .833zM11 25c1.657 0 3-1.12 3-2.5S12.657 20 11 20s-3 1.12-3 2.5S9.343 25 11 25z" fill="#13152D"/></svg>