<svg width="47" height="44" fill="none" xmlns="http://www.w3.org/2000/svg"><path fill-rule="evenodd" clip-rule="evenodd" d="M9.157 2.855a6.5 6.5 0 00-6.5 6.5v21.563a1 1 0 001.643.766l4.874-4.097a3 3 0 011.93-.703h17.8a6.5 6.5 0 006.5-6.5V9.355a6.5 6.5 0 00-6.5-6.5H9.157zm-8.5 6.5a8.5 8.5 0 018.5-8.5h19.747a8.5 8.5 0 018.5 8.5v11.029a8.5 8.5 0 01-8.5 8.5h-17.8a1 1 0 00-.644.234l-4.873 4.097c-1.952 1.64-4.93.253-4.93-2.297V9.356z" fill="#13152D"/><path fill-rule="evenodd" clip-rule="evenodd" d="M8.87 10.448a1 1 0 011-1h18.574a1 1 0 110 2H9.87a1 1 0 01-1-1zm0 5.812a1 1 0 011-1h12.382a1 1 0 110 2H9.87a1 1 0 01-1-1zm30.566-4.157a6.686 6.686 0 016.686 6.686v22.127c0 2.547-2.971 3.935-4.925 2.302l-3.109-2.6a1 1 0 00-.641-.234h-17.47a7.823 7.823 0 01-7.822-7.823h2a5.823 5.823 0 005.823 5.823h17.469a3 3 0 011.924.7l3.11 2.6a1 1 0 001.641-.767V18.788a4.686 4.686 0 00-4.686-4.686v-2z" fill="#13152D"/></svg>