<svg width="102" height="100" fill="none" xmlns="http://www.w3.org/2000/svg"><path d="M2.978 17.732v50.623c0 3.4 3.972 5.25 6.574 3.062l11.706-9.84a4 4 0 012.574-.938h41.45c8.284 0 15-6.716 15-15V17.732c0-8.285-6.716-15-15-15H17.978c-8.284 0-15 6.715-15 15z" stroke="#13152D" stroke-width="4"/><path d="M21.25 21.843h41.323M21.25 34.777H48.8M28.558 71.04v0c0 8.383 6.797 15.18 15.18 15.18h39.027a4 4 0 012.566.931l7.78 6.508c2.604 2.178 6.567.326 6.567-3.069V40.4c0-6.986-5.664-12.65-12.65-12.65v0" stroke="#13152D" stroke-width="4" stroke-linecap="round"/></svg>