<svg width="43" height="37" fill="none" xmlns="http://www.w3.org/2000/svg"><path d="M30 21a2 2 0 11-4 0 2 2 0 014 0z" fill="#13152D"/><path fill-rule="evenodd" clip-rule="evenodd" d="M0 3.213C0 1.44 1.408 0 3.144 0h29.264c.496 0 .898.411.898.918a.908.908 0 01-.898.918H3.143c-.744 0-1.347.617-1.347 1.377S2.4 4.59 3.144 4.59h28.568C35.185 4.59 38 7.468 38 11.017v4.065a.908.908 0 01-.898.918.908.908 0 01-.899-.918v-4.065c0-2.535-2.01-4.59-4.491-4.59H3.144C1.408 6.426 0 4.986 0 3.212z" fill="#13152D"/><path fill-rule="evenodd" clip-rule="evenodd" d="M27.268.939c0-.519.411-.939.917-.939h8.396C40.127 0 43 2.942 43 6.571v24.796C43 34.478 40.537 37 37.498 37H8.253C3.695 37 0 33.217 0 28.551V3.484c0-.518.41-.939.917-.939.506 0 .917.42.917.94V28.55c0 3.63 2.873 6.572 6.418 6.572h29.246c2.026 0 3.668-1.682 3.668-3.756V6.571c0-2.592-2.052-4.693-4.584-4.693h-8.397a.928.928 0 01-.916-.94z" fill="#13152D"/><path fill-rule="evenodd" clip-rule="evenodd" d="M36.32 34.644V26H38v8.644C38 35.945 37.06 37 35.899 37H33v-1.885h2.899c.232 0 .42-.21.42-.47z" fill="#13152D"/><path fill-rule="evenodd" clip-rule="evenodd" d="M41.104 14.843V9H43v5.843c0 1.273-1.061 2.304-2.37 2.304H28.015c-2.275 0-4.119 1.793-4.119 4.005 0 2.212 1.844 4.005 4.12 4.005H40.63a.468.468 0 00.474-.461v-1.902H43v1.902C43 25.968 41.939 27 40.63 27H28.015C24.693 27 22 24.382 22 21.152s2.693-5.848 6.015-5.848H40.63a.468.468 0 00.474-.461zM6 13c.552 0 1 .411 1 .918v9.164c0 .507-.448.918-1 .918s-1-.411-1-.918v-9.164c0-.507.448-.918 1-.918zm0 12c.552 0 1 .495 1 1.106v.788C7 27.504 6.552 28 6 28s-1-.495-1-1.106v-.788C5 25.496 5.448 25 6 25z" fill="#13152D"/></svg>