<svg width="95" height="80" fill="none" xmlns="http://www.w3.org/2000/svg"><path d="M72.567 2.907H7.417a5 5 0 00-5 5v0a5 5 0 005 5h63.601c6.627 0 12 5.372 12 12v8.854" stroke="#13152D" stroke-width="4" stroke-linecap="round"/><path d="M61.896 2.907h18.313c6.628 0 12 5.373 12 12v52.827c0 5.522-4.477 10-10 10H18.418c-8.837 0-16-7.164-16-16V8.33" stroke="#13152D" stroke-width="4" stroke-linecap="round"/><path d="M83.016 56.394V74.74a3 3 0 01-3 3h-6.898M92.21 18.754v12.678a3 3 0 01-3 3H62.597c-5.903 0-10.69 4.786-10.69 10.69v0c0 5.903 4.787 10.689 10.69 10.689H89.21a3 3 0 003-3v-4.126" stroke="#13152D" stroke-width="4"/><path d="M14.435 29.278v19.954m0 6.412v1.426" stroke="#13152D" stroke-width="4" stroke-linecap="round"/><path d="M65.464 45.12c0 1.665-1.335 2.988-2.95 2.988-1.613 0-2.949-1.323-2.949-2.988 0-1.666 1.336-2.989 2.95-2.989s2.949 1.323 2.949 2.989z" fill="#13152D" stroke="#13152D" stroke-width="4"/></svg>